# Blender 4.1.1
# www.blender.org
mtllib skydome.mtl
o 球
v 0.000000 415.734802 -277.785126
v 0.000000 277.785126 -415.734802
v 0.000000 97.545158 -490.392639
v 0.000000 0.000000 -500.000000
v 0.000000 -97.545158 -490.392639
v 0.000000 -277.785126 -415.734802
v 19.030117 490.392639 -95.670860
v 37.328922 461.939758 -187.665146
v 54.193192 415.734802 -272.447571
v 68.974846 353.553375 -346.759949
v 81.105835 277.785126 -407.746552
v 90.119972 191.341721 -453.063690
v 95.670860 97.545158 -480.969849
v 97.545158 0.000000 -490.392639
v 95.670860 -97.545158 -480.969849
v 90.119972 -191.341721 -453.063690
v 81.105835 -277.785126 -407.746552
v 68.974846 -353.553375 -346.759949
v 54.193192 -415.734802 -272.447571
v 37.328922 -461.939758 -187.665146
v 19.030117 -490.392639 -95.670860
v 37.328915 490.392639 -90.119972
v 73.223305 461.939758 -176.776703
v 106.303764 415.734802 -256.639954
v 135.299026 353.553375 -326.640717
v 159.094818 277.785126 -384.088806
v 176.776672 191.341721 -426.776672
v 187.665131 97.545158 -453.063690
v 191.341721 0.000000 -461.939728
v 187.665131 -97.545158 -453.063690
v 176.776672 -191.341721 -426.776672
v 159.094818 -277.785126 -384.088806
v 135.299026 -353.553375 -326.640717
v 106.303764 -415.734802 -256.639954
v 73.223305 -461.939758 -176.776703
v 37.328915 -490.392639 -90.119972
v 54.193184 490.392639 -81.105827
v 106.303764 461.939758 -159.094818
v 154.329132 415.734802 -230.969849
v 196.423737 353.553375 -293.968872
v 230.969849 277.785126 -345.670776
v 256.639954 191.341721 -384.088837
v 272.447571 97.545158 -407.746552
v 277.785126 0.000000 -415.734741
v 272.447571 -97.545158 -407.746552
v 256.639954 -191.341721 -384.088837
v 230.969849 -277.785126 -345.670776
v 196.423737 -353.553375 -293.968872
v 154.329132 -415.734802 -230.969849
v 106.303764 -461.939758 -159.094818
v 54.193184 -490.392639 -81.105827
v 68.974838 490.392639 -68.974831
v 135.299026 461.939758 -135.299011
v 196.423721 415.734802 -196.423691
v 250.000000 353.553375 -250.000000
v 293.968842 277.785126 -293.968842
v 326.640686 191.341721 -326.640717
v 346.759949 97.545158 -346.759918
v 353.553375 0.000000 -353.553284
v 346.759949 -97.545158 -346.759918
v 326.640686 -191.341721 -326.640717
v 293.968842 -277.785126 -293.968842
v 250.000000 -353.553375 -250.000000
v 196.423721 -415.734802 -196.423691
v 135.299026 -461.939758 -135.299011
v 68.974838 -490.392639 -68.974831
v 81.105827 490.392639 -54.193176
v 159.094818 461.939758 -106.303749
v 230.969864 415.734802 -154.329102
v 293.968872 353.553375 -196.423737
v 345.670807 277.785126 -230.969818
v 384.088806 191.341721 -256.639984
v 407.746552 97.545158 -272.447510
v 415.734772 0.000000 -277.785004
v 407.746552 -97.545158 -272.447510
v 384.088806 -191.341721 -256.639984
v 345.670807 -277.785126 -230.969818
v 293.968872 -353.553375 -196.423737
v 230.969864 -415.734802 -154.329102
v 159.094818 -461.939758 -106.303749
v 81.105827 -490.392639 -54.193176
v 0.000000 500.000000 0.000000
v 90.119957 490.392639 -37.328907
v 176.776672 461.939758 -73.223289
v 256.639954 415.734802 -106.303726
v 326.640717 353.553375 -135.299026
v 384.088806 277.785126 -159.094757
v 426.776642 191.341721 -176.776703
v 453.063660 97.545158 -187.665070
v 461.939697 0.000000 -191.341614
v 453.063660 -97.545158 -187.665070
v 426.776642 -191.341721 -176.776703
v 384.088806 -277.785126 -159.094757
v 326.640717 -353.553375 -135.299026
v 256.639954 -415.734802 -106.303726
v 176.776672 -461.939758 -73.223289
v 90.119957 -490.392639 -37.328907
v 95.670837 490.392639 -19.030107
v 187.665115 461.939758 -37.328907
v 272.447540 415.734802 -54.193157
v 346.759949 353.553375 -68.974854
v 407.746490 277.785126 -81.105782
v 453.063660 191.341721 -90.119995
v 480.969818 97.545158 -95.670807
v 490.392548 0.000000 -97.545067
v 480.969818 -97.545158 -95.670807
v 453.063660 -191.341721 -90.119995
v 407.746490 -277.785126 -81.105782
v 346.759949 -353.553375 -68.974854
v 272.447540 -415.734802 -54.193157
v 187.665115 -461.939758 -37.328907
v 95.670837 -490.392639 -19.030107
v 97.545135 490.392639 0.000006
v 191.341705 461.939758 0.000011
v 277.785065 415.734802 0.000026
v 353.553345 353.553375 -0.000007
v 415.734711 277.785126 0.000045
v 461.939728 191.341721 -0.000022
v 490.392578 97.545158 0.000045
v 499.999847 0.000000 0.000082
v 490.392578 -97.545158 0.000045
v 461.939728 -191.341721 -0.000022
v 415.734711 -277.785126 0.000045
v 353.553345 -353.553375 -0.000007
v 277.785065 -415.734802 0.000026
v 191.341705 -461.939758 0.000011
v 97.545135 -490.392639 0.000006
v 95.670830 490.392639 19.030117
v 187.665115 461.939758 37.328926
v 272.447510 415.734802 54.193203
v 346.759918 353.553375 68.974831
v 407.746460 277.785126 81.105865
v 453.063660 191.341721 90.119949
v 480.969788 97.545158 95.670883
v 490.392456 0.000000 97.545212
v 480.969788 -97.545158 95.670883
v 453.063660 -191.341721 90.119949
v 407.746460 -277.785126 81.105865
v 346.759918 -353.553375 68.974831
v 272.447510 -415.734802 54.193203
v 187.665115 -461.939758 37.328926
v 95.670830 -490.392639 19.030117
v 90.119942 490.392639 37.328911
v 176.776672 461.939758 73.223305
v 256.639893 415.734802 106.303764
v 326.640686 353.553375 135.298996
v 384.088745 277.785126 159.094818
v 426.776642 191.341721 176.776642
v 453.063599 97.545158 187.665146
v 461.939545 0.000000 191.341721
v 453.063599 -97.545158 187.665146
v 426.776642 -191.341721 176.776642
v 384.088745 -277.785126 159.094818
v 326.640686 -353.553375 135.298996
v 256.639893 -415.734802 106.303764
v 176.776672 -461.939758 73.223305
v 90.119942 -490.392639 37.328911
v 81.105797 490.392639 54.193169
v 159.094803 461.939758 106.303757
v 230.969788 415.734802 154.329117
v 293.968842 353.553375 196.423706
v 345.670715 277.785126 230.969849
v 384.088806 191.341721 256.639923
v 407.746460 97.545158 272.447540
v 415.734558 0.000000 277.785095
v 407.746460 -97.545158 272.447540
v 384.088806 -191.341721 256.639923
v 345.670715 -277.785126 230.969849
v 293.968842 -353.553375 196.423706
v 230.969788 -415.734802 154.329117
v 159.094803 -461.939758 106.303757
v 81.105797 -490.392639 54.193169
v 68.974808 490.392639 68.974815
v 135.298981 461.939758 135.299011
v 196.423630 415.734802 196.423706
v 249.999969 353.553375 249.999969
v 293.968781 277.785126 293.968842
v 326.640686 191.341721 326.640656
v 346.759857 97.545158 346.759918
v 353.553131 0.000000 353.553314
v 346.759857 -97.545158 346.759918
v 326.640686 -191.341721 326.640656
v 293.968781 -277.785126 293.968842
v 249.999969 -353.553375 249.999969
v 196.423630 -415.734802 196.423706
v 135.298981 -461.939758 135.299011
v 68.974808 -490.392639 68.974815
v 54.193157 490.392639 81.105797
v 106.303719 461.939758 159.094818
v 154.329041 415.734802 230.969833
v 196.423706 353.553375 293.968842
v 230.969772 277.785126 345.670746
v 256.639954 191.341721 384.088776
v 272.447449 97.545158 407.746490
v 277.784851 0.000000 415.734680
v 272.447449 -97.545158 407.746490
v 256.639954 -191.341721 384.088776
v 230.969772 -277.785126 345.670746
v 196.423706 -353.553375 293.968842
v 154.329041 -415.734802 230.969833
v 106.303719 -461.939758 159.094818
v 54.193157 -490.392639 81.105797
v 37.328892 490.392639 90.119926
v 73.223267 461.939758 176.776657
v 106.303680 415.734802 256.639893
v 135.298996 353.553375 326.640686
v 159.094727 277.785126 384.088745
v 176.776672 191.341721 426.776581
v 187.665009 97.545158 453.063599
v 191.341476 0.000000 461.939575
v 187.665009 -97.545158 453.063599
v 176.776672 -191.341721 426.776581
v 159.094727 -277.785126 384.088745
v 135.298996 -353.553375 326.640686
v 106.303680 -415.734802 256.639893
v 73.223267 -461.939758 176.776657
v 37.328892 -490.392639 90.119926
v 19.030102 490.392639 95.670799
v 37.328880 461.939758 187.665085
v 54.193115 415.734802 272.447449
v 68.974831 353.553375 346.759918
v 81.105759 277.785126 407.746429
v 90.119972 191.341721 453.063599
v 95.670761 97.545158 480.969727
v 97.544952 0.000000 490.392395
v 95.670761 -97.545158 480.969727
v 90.119972 -191.341721 453.063599
v 81.105759 -277.785126 407.746429
v 68.974831 -353.553375 346.759918
v 54.193115 -415.734802 272.447449
v 37.328880 -461.939758 187.665085
v 19.030102 -490.392639 95.670799
v -0.000004 490.392639 97.545097
v -0.000026 461.939758 191.341675
v -0.000048 415.734802 277.784973
v -0.000007 353.553375 353.553314
v -0.000052 277.785126 415.734650
v 0.000015 191.341721 461.939636
v -0.000067 97.545158 490.392487
v -0.000164 0.000000 499.999664
v -0.000067 -97.545158 490.392487
v 0.000015 -191.341721 461.939636
v -0.000052 -277.785126 415.734650
v -0.000007 -353.553375 353.553314
v -0.000048 -415.734802 277.784973
v -0.000026 -461.939758 191.341675
v -0.000004 -490.392639 97.545097
v -19.030107 490.392639 95.670792
v -37.328934 461.939758 187.665085
v -54.193211 415.734802 272.447418
v -68.974838 353.553375 346.759888
v -81.105858 277.785126 407.746399
v -90.119934 191.341721 453.063568
v -95.670891 97.545158 480.969696
v -97.545258 0.000000 490.392273
v -95.670891 -97.545158 480.969696
v -90.119934 -191.341721 453.063568
v -81.105858 -277.785126 407.746399
v -68.974838 -353.553375 346.759888
v -54.193211 -415.734802 272.447418
v -37.328934 -461.939758 187.665085
v -19.030107 -490.392639 95.670792
v -37.328892 490.392639 90.119911
v -73.223305 461.939758 176.776642
v -106.303749 415.734802 256.639801
v -135.298996 353.553375 326.640656
v -159.094818 277.785126 384.088684
v -176.776611 191.341721 426.776550
v -187.665131 97.545158 453.063507
v -191.341736 0.000000 461.939362
v -187.665131 -97.545158 453.063507
v -176.776611 -191.341721 426.776550
v -159.094818 -277.785126 384.088684
v -135.298996 -353.553375 326.640656
v -106.303749 -415.734802 256.639801
v -73.223305 -461.939758 176.776642
v -37.328892 -490.392639 90.119911
v -54.193150 490.392639 81.105774
v -106.303749 461.939758 159.094772
v -154.329086 415.734802 230.969696
v -196.423706 353.553375 293.968842
v -230.969818 277.785126 345.670685
v -256.639862 191.341721 384.088745
v -272.447540 97.545158 407.746368
v -277.785065 0.000000 415.734375
v -272.447540 -97.545158 407.746368
v -256.639862 -191.341721 384.088745
v -230.969818 -277.785126 345.670685
v -196.423706 -353.553375 293.968842
v -154.329086 -415.734802 230.969696
v -106.303749 -461.939758 159.094772
v -54.193150 -490.392639 81.105774
v -68.974792 490.392639 68.974785
v -135.298996 461.939758 135.298965
v -196.423645 415.734802 196.423553
v -249.999954 353.553375 249.999939
v -293.968811 277.785126 293.968719
v -326.640594 191.341721 326.640625
v -346.759888 97.545158 346.759766
v -353.553223 0.000000 353.552979
v -346.759888 -97.545158 346.759766
v -326.640594 -191.341721 326.640625
v -293.968811 -277.785126 293.968719
v -249.999954 -353.553375 249.999939
v -196.423645 -415.734802 196.423553
v -135.298996 -461.939758 135.298965
v -68.974792 -490.392639 68.974785
v 0.000000 -500.000000 0.000000
v -81.105774 490.392639 54.193138
v -159.094788 461.939758 106.303703
v -230.969757 415.734802 154.328979
v -293.968842 353.553375 196.423676
v -345.670715 277.785126 230.969711
v -384.088715 191.341721 256.639893
v -407.746460 97.545158 272.447357
v -415.734558 0.000000 277.784698
v -407.746460 -97.545158 272.447357
v -384.088715 -191.341721 256.639893
v -345.670715 -277.785126 230.969711
v -293.968842 -353.553375 196.423676
v -230.969757 -415.734802 154.328979
v -159.094788 -461.939758 106.303703
v -81.105774 -490.392639 54.193138
v -90.119904 490.392639 37.328876
v -176.776627 461.939758 73.223259
v -256.639801 415.734802 106.303619
v -326.640656 353.553375 135.298981
v -384.088684 277.785126 159.094666
v -426.776520 191.341721 176.776627
v -453.063568 97.545158 187.664948
v -461.939423 0.000000 191.341339
v -453.063568 -97.545158 187.664948
v -426.776520 -191.341721 176.776627
v -384.088684 -277.785126 159.094666
v -326.640656 -353.553375 135.298981
v -256.639801 -415.734802 106.303619
v -176.776627 -461.939758 73.223259
v -90.119904 -490.392639 37.328876
v -95.670776 490.392639 19.030090
v -187.665054 461.939758 37.328876
v -272.447357 415.734802 54.193077
v -346.759888 353.553375 68.974815
v -407.746368 277.785126 81.105713
v -453.063538 191.341721 90.119942
v -480.969696 97.545158 95.670692
v -490.392212 0.000000 97.544846
v -480.969696 -97.545158 95.670692
v -453.063538 -191.341721 90.119942
v -407.746368 -277.785126 81.105713
v -346.759888 -353.553375 68.974815
v -272.447357 -415.734802 54.193077
v -187.665054 -461.939758 37.328876
v -95.670776 -490.392639 19.030090
v -97.545074 490.392639 -0.000009
v -191.341629 461.939758 -0.000026
v -277.784882 415.734802 -0.000075
v -353.553284 353.553375 -0.000015
v -415.734589 277.785126 -0.000082
v -461.939575 191.341721 -0.000007
v -490.392426 97.545158 -0.000134
v -499.999512 0.000000 -0.000224
v -490.392426 -97.545158 -0.000134
v -461.939575 -191.341721 -0.000007
v -415.734589 -277.785126 -0.000082
v -353.553284 -353.553375 -0.000015
v -277.784882 -415.734802 -0.000075
v -191.341629 -461.939758 -0.000026
v -97.545074 -490.392639 -0.000009
v -95.670769 490.392639 -19.030109
v -187.665039 461.939758 -37.328926
v -272.447327 415.734802 -54.193218
v -346.759857 353.553375 -68.974846
v -407.746307 277.785126 -81.105881
v -453.063507 191.341721 -90.119949
v -480.969604 97.545158 -95.670944
v -490.392120 0.000000 -97.545288
v -480.969604 -97.545158 -95.670944
v -453.063507 -191.341721 -90.119949
v -407.746307 -277.785126 -81.105881
v -346.759857 -353.553375 -68.974846
v -272.447327 -415.734802 -54.193218
v -187.665039 -461.939758 -37.328926
v -95.670769 -490.392639 -19.030109
v -90.119888 490.392639 -37.328892
v -176.776596 461.939758 -73.223289
v -256.639709 415.734802 -106.303741
v -326.640625 353.553375 -135.298996
v -384.088593 277.785126 -159.094818
v -426.776489 191.341721 -176.776611
v -453.063416 97.545158 -187.665161
v -461.939209 0.000000 -191.341736
v -453.063416 -97.545158 -187.665161
v -426.776489 -191.341721 -176.776611
v -384.088593 -277.785126 -159.094818
v -326.640625 -353.553375 -135.298996
v -256.639709 -415.734802 -106.303741
v -176.776596 -461.939758 -73.223289
v -90.119888 -490.392639 -37.328892
v -81.105751 490.392639 -54.193146
v -159.094727 461.939758 -106.303726
v -230.969604 415.734802 -154.329071
v -293.968811 353.553375 -196.423691
v -345.670593 277.785126 -230.969818
v -384.088684 191.341721 -256.639862
v -407.746277 97.545158 -272.447540
v -415.734222 0.000000 -277.785034
v -407.746277 -97.545158 -272.447540
v -384.088684 -191.341721 -256.639862
v -345.670593 -277.785126 -230.969818
v -293.968811 -353.553375 -196.423691
v -230.969604 -415.734802 -154.329071
v -159.094727 -461.939758 -106.303726
v -81.105751 -490.392639 -54.193146
v -68.974770 490.392639 -68.974785
v -135.298935 461.939758 -135.298965
v -196.423477 415.734802 -196.423615
v -249.999908 353.553375 -249.999939
v -293.968628 277.785126 -293.968781
v -326.640564 191.341721 -326.640564
v -346.759674 97.545158 -346.759857
v -353.552856 0.000000 -353.553162
v -346.759674 -97.545158 -346.759857
v -326.640564 -191.341721 -326.640564
v -293.968628 -277.785126 -293.968781
v -249.999908 -353.553375 -249.999939
v -196.423477 -415.734802 -196.423615
v -135.298935 -461.939758 -135.298965
v -68.974770 -490.392639 -68.974785
v -54.193123 490.392639 -81.105759
v -106.303688 461.939758 -159.094757
v -154.328903 415.734802 -230.969711
v -196.423645 353.553375 -293.968842
v -230.969635 277.785126 -345.670685
v -256.639832 191.341721 -384.088684
v -272.447296 97.545158 -407.746399
v -277.784607 0.000000 -415.734467
v -272.447296 -97.545158 -407.746399
v -256.639832 -191.341721 -384.088684
v -230.969635 -277.785126 -345.670685
v -196.423645 -353.553375 -293.968842
v -154.328903 -415.734802 -230.969711
v -106.303688 -461.939758 -159.094757
v -54.193123 -490.392639 -81.105759
v -37.328869 490.392639 -90.119881
v -73.223244 461.939758 -176.776611
v -106.303551 415.734802 -256.639740
v -135.298950 353.553375 -326.640656
v -159.094604 277.785126 -384.088623
v -176.776581 191.341721 -426.776489
v -187.664902 97.545158 -453.063477
v -191.341278 0.000000 -461.939301
v -187.664902 -97.545158 -453.063477
v -176.776581 -191.341721 -426.776489
v -159.094604 -277.785126 -384.088623
v -135.298950 -353.553375 -326.640656
v -106.303551 -415.734802 -256.639740
v -73.223244 -461.939758 -176.776611
v -37.328869 -490.392639 -90.119881
v -19.030088 490.392639 -95.670753
v -37.328865 461.939758 -187.665039
v -54.193020 415.734802 -272.447266
v -68.974785 353.553375 -346.759888
v -81.105667 277.785126 -407.746277
v -90.119904 191.341721 -453.063477
v -95.670662 97.545158 -480.969604
v -97.544815 0.000000 -490.392090
v -95.670662 -97.545158 -480.969604
v -90.119904 -191.341721 -453.063477
v -81.105667 -277.785126 -407.746277
v -68.974785 -353.553375 -346.759888
v -54.193020 -415.734802 -272.447266
v -37.328865 -461.939758 -187.665039
v -19.030088 -490.392639 -95.670753
v 0.000007 490.392639 -97.545052
v 0.000034 461.939758 -191.341614
v 0.000045 353.553375 -353.553284
v 0.000030 191.341721 -461.939514
v 0.000030 -191.341721 -461.939514
v 0.000045 -353.553375 -353.553284
v 0.000108 -415.734802 -277.784760
v 0.000034 -461.939758 -191.341614
v 0.000007 -490.392639 -97.545052
vn -0.0000 -0.8286 0.5598
vn -0.0000 -0.5528 0.8333
vn -0.0000 -0.1939 0.9810
vn -0.0000 -0.0000 1.0000
vn -0.0000 0.1939 0.9810
vn -0.0000 0.5528 0.8333
vn -0.0392 -0.9796 0.1971
vn -0.0757 -0.9217 0.3804
vn -0.1092 -0.8286 0.5490
vn -0.1385 -0.7041 0.6965
vn -0.1626 -0.5528 0.8173
vn -0.1804 -0.3805 0.9070
vn -0.1914 -0.1939 0.9622
vn -0.1951 -0.0000 0.9808
vn -0.1914 0.1939 0.9622
vn -0.1804 0.3805 0.9070
vn -0.1626 0.5528 0.8173
vn -0.1385 0.7041 0.6965
vn -0.1092 0.8286 0.5490
vn -0.0757 0.9217 0.3804
vn -0.0392 0.9796 0.1971
vn -0.0769 -0.9796 0.1857
vn -0.1484 -0.9217 0.3584
vn -0.2142 -0.8286 0.5172
vn -0.2718 -0.7041 0.6561
vn -0.3189 -0.5528 0.7699
vn -0.3539 -0.3805 0.8544
vn -0.3754 -0.1939 0.9063
vn -0.3827 -0.0000 0.9239
vn -0.3754 0.1939 0.9063
vn -0.3539 0.3805 0.8544
vn -0.3189 0.5528 0.7699
vn -0.2718 0.7041 0.6561
vn -0.2142 0.8286 0.5172
vn -0.1484 0.9217 0.3584
vn -0.0769 0.9796 0.1857
vn -0.1117 -0.9796 0.1671
vn -0.2155 -0.9217 0.3225
vn -0.3110 -0.8286 0.4654
vn -0.3945 -0.7041 0.5905
vn -0.4630 -0.5528 0.6929
vn -0.5138 -0.3805 0.7689
vn -0.5450 -0.1939 0.8157
vn -0.5556 -0.0000 0.8315
vn -0.5450 0.1939 0.8157
vn -0.5138 0.3805 0.7689
vn -0.4630 0.5528 0.6929
vn -0.3945 0.7041 0.5905
vn -0.3110 0.8286 0.4654
vn -0.2155 0.9217 0.3225
vn -0.1117 0.9796 0.1671
vn -0.1421 -0.9796 0.1421
vn -0.2743 -0.9217 0.2743
vn -0.3958 -0.8286 0.3958
vn -0.5021 -0.7041 0.5021
vn -0.5893 -0.5528 0.5893
vn -0.6539 -0.3805 0.6539
vn -0.6937 -0.1939 0.6937
vn -0.7071 -0.0000 0.7071
vn -0.6937 0.1939 0.6937
vn -0.6539 0.3805 0.6539
vn -0.5893 0.5528 0.5893
vn -0.5021 0.7041 0.5021
vn -0.3958 0.8286 0.3958
vn -0.2743 0.9217 0.2743
vn -0.1421 0.9796 0.1421
vn -0.1671 -0.9796 0.1117
vn -0.3225 -0.9217 0.2155
vn -0.4654 -0.8286 0.3110
vn -0.5905 -0.7041 0.3945
vn -0.6929 -0.5528 0.4630
vn -0.7689 -0.3805 0.5138
vn -0.8157 -0.1939 0.5450
vn -0.8315 -0.0000 0.5556
vn -0.8157 0.1939 0.5450
vn -0.7689 0.3805 0.5138
vn -0.6929 0.5528 0.4630
vn -0.5905 0.7041 0.3945
vn -0.4654 0.8286 0.3110
vn -0.3225 0.9217 0.2155
vn -0.1671 0.9796 0.1117
vn -0.0000 -1.0000 -0.0000
vn -0.1857 -0.9796 0.0769
vn -0.3584 -0.9217 0.1484
vn -0.5172 -0.8286 0.2142
vn -0.6561 -0.7041 0.2718
vn -0.7699 -0.5528 0.3189
vn -0.8544 -0.3805 0.3539
vn -0.9063 -0.1939 0.3754
vn -0.9239 -0.0000 0.3827
vn -0.9063 0.1939 0.3754
vn -0.8544 0.3805 0.3539
vn -0.7699 0.5528 0.3189
vn -0.6561 0.7041 0.2718
vn -0.5172 0.8286 0.2142
vn -0.3584 0.9217 0.1484
vn -0.1857 0.9796 0.0769
vn -0.1971 -0.9796 0.0392
vn -0.3804 -0.9217 0.0757
vn -0.5490 -0.8286 0.1092
vn -0.6965 -0.7041 0.1385
vn -0.8173 -0.5528 0.1626
vn -0.9070 -0.3805 0.1804
vn -0.9622 -0.1939 0.1914
vn -0.9808 -0.0000 0.1951
vn -0.9622 0.1939 0.1914
vn -0.9070 0.3805 0.1804
vn -0.8173 0.5528 0.1626
vn -0.6965 0.7041 0.1385
vn -0.5490 0.8286 0.1092
vn -0.3804 0.9217 0.0757
vn -0.1971 0.9796 0.0392
vn -0.2010 -0.9796 -0.0000
vn -0.3879 -0.9217 -0.0000
vn -0.5598 -0.8286 -0.0000
vn -0.7101 -0.7041 -0.0000
vn -0.8333 -0.5528 -0.0000
vn -0.9248 -0.3805 -0.0000
vn -0.9810 -0.1939 -0.0000
vn -1.0000 -0.0000 -0.0000
vn -0.9810 0.1939 -0.0000
vn -0.9248 0.3805 -0.0000
vn -0.8333 0.5528 -0.0000
vn -0.7101 0.7041 -0.0000
vn -0.5598 0.8286 -0.0000
vn -0.3879 0.9217 -0.0000
vn -0.2010 0.9796 -0.0000
vn -0.1971 -0.9796 -0.0392
vn -0.3804 -0.9217 -0.0757
vn -0.5490 -0.8286 -0.1092
vn -0.6965 -0.7041 -0.1385
vn -0.8173 -0.5528 -0.1626
vn -0.9070 -0.3805 -0.1804
vn -0.9622 -0.1939 -0.1914
vn -0.9808 -0.0000 -0.1951
vn -0.9622 0.1939 -0.1914
vn -0.9070 0.3805 -0.1804
vn -0.8173 0.5528 -0.1626
vn -0.6965 0.7041 -0.1385
vn -0.5490 0.8286 -0.1092
vn -0.3804 0.9217 -0.0757
vn -0.1971 0.9796 -0.0392
vn -0.1857 -0.9796 -0.0769
vn -0.3584 -0.9217 -0.1484
vn -0.5172 -0.8286 -0.2142
vn -0.6561 -0.7041 -0.2718
vn -0.7699 -0.5528 -0.3189
vn -0.8544 -0.3805 -0.3539
vn -0.9063 -0.1939 -0.3754
vn -0.9239 -0.0000 -0.3827
vn -0.9063 0.1939 -0.3754
vn -0.8544 0.3805 -0.3539
vn -0.7699 0.5528 -0.3189
vn -0.6561 0.7041 -0.2718
vn -0.5172 0.8286 -0.2142
vn -0.3584 0.9217 -0.1484
vn -0.1857 0.9796 -0.0769
vn -0.1671 -0.9796 -0.1117
vn -0.3225 -0.9217 -0.2155
vn -0.4654 -0.8286 -0.3110
vn -0.5905 -0.7041 -0.3945
vn -0.6929 -0.5528 -0.4630
vn -0.7689 -0.3805 -0.5138
vn -0.8157 -0.1939 -0.5450
vn -0.8315 -0.0000 -0.5556
vn -0.8157 0.1939 -0.5450
vn -0.7689 0.3805 -0.5138
vn -0.6929 0.5528 -0.4630
vn -0.5905 0.7041 -0.3945
vn -0.4654 0.8286 -0.3110
vn -0.3225 0.9217 -0.2155
vn -0.1671 0.9796 -0.1117
vn -0.1421 -0.9796 -0.1421
vn -0.2743 -0.9217 -0.2743
vn -0.3958 -0.8286 -0.3958
vn -0.5021 -0.7041 -0.5021
vn -0.5893 -0.5528 -0.5893
vn -0.6539 -0.3805 -0.6539
vn -0.6937 -0.1939 -0.6937
vn -0.7071 -0.0000 -0.7071
vn -0.6937 0.1939 -0.6937
vn -0.6539 0.3805 -0.6539
vn -0.5893 0.5528 -0.5893
vn -0.5021 0.7041 -0.5021
vn -0.3958 0.8286 -0.3958
vn -0.2743 0.9217 -0.2743
vn -0.1421 0.9796 -0.1421
vn -0.1116 -0.9796 -0.1671
vn -0.2155 -0.9217 -0.3225
vn -0.3110 -0.8286 -0.4654
vn -0.3945 -0.7041 -0.5905
vn -0.4630 -0.5528 -0.6929
vn -0.5138 -0.3805 -0.7689
vn -0.5450 -0.1939 -0.8157
vn -0.5556 -0.0000 -0.8315
vn -0.5450 0.1939 -0.8157
vn -0.5138 0.3805 -0.7689
vn -0.4630 0.5528 -0.6929
vn -0.3945 0.7041 -0.5905
vn -0.3110 0.8286 -0.4654
vn -0.2155 0.9217 -0.3225
vn -0.1117 0.9796 -0.1671
vn -0.0769 -0.9796 -0.1857
vn -0.1484 -0.9217 -0.3584
vn -0.2142 -0.8286 -0.5172
vn -0.2718 -0.7041 -0.6561
vn -0.3189 -0.5528 -0.7699
vn -0.3539 -0.3805 -0.8544
vn -0.3754 -0.1939 -0.9063
vn -0.3827 -0.0000 -0.9239
vn -0.3754 0.1939 -0.9063
vn -0.3539 0.3805 -0.8544
vn -0.3189 0.5528 -0.7699
vn -0.2718 0.7041 -0.6561
vn -0.2142 0.8286 -0.5172
vn -0.1484 0.9217 -0.3584
vn -0.0769 0.9796 -0.1857
vn -0.0392 -0.9796 -0.1971
vn -0.0757 -0.9217 -0.3804
vn -0.1092 -0.8286 -0.5490
vn -0.1385 -0.7041 -0.6965
vn -0.1626 -0.5528 -0.8173
vn -0.1804 -0.3805 -0.9070
vn -0.1914 -0.1939 -0.9622
vn -0.1951 -0.0000 -0.9808
vn -0.1914 0.1939 -0.9622
vn -0.1804 0.3805 -0.9070
vn -0.1626 0.5528 -0.8173
vn -0.1385 0.7041 -0.6965
vn -0.1092 0.8286 -0.5490
vn -0.0757 0.9217 -0.3804
vn -0.0392 0.9796 -0.1971
vn -0.0000 -0.9796 -0.2010
vn -0.0000 -0.9217 -0.3879
vn -0.0000 -0.8286 -0.5598
vn -0.0000 -0.7041 -0.7101
vn -0.0000 -0.5528 -0.8333
vn -0.0000 -0.3805 -0.9248
vn -0.0000 -0.1939 -0.9810
vn -0.0000 -0.0000 -1.0000
vn -0.0000 0.1939 -0.9810
vn -0.0000 0.3805 -0.9248
vn -0.0000 0.5528 -0.8333
vn -0.0000 0.7041 -0.7101
vn -0.0000 0.8286 -0.5598
vn -0.0000 0.9217 -0.3879
vn -0.0000 0.9796 -0.2010
vn 0.0392 -0.9796 -0.1971
vn 0.0757 -0.9217 -0.3804
vn 0.1092 -0.8286 -0.5490
vn 0.1385 -0.7041 -0.6965
vn 0.1626 -0.5528 -0.8173
vn 0.1804 -0.3805 -0.9070
vn 0.1914 -0.1939 -0.9622
vn 0.1951 -0.0000 -0.9808
vn 0.1914 0.1939 -0.9622
vn 0.1804 0.3805 -0.9070
vn 0.1626 0.5528 -0.8173
vn 0.1385 0.7041 -0.6965
vn 0.1092 0.8286 -0.5490
vn 0.0757 0.9217 -0.3804
vn 0.0392 0.9796 -0.1971
vn 0.0769 -0.9796 -0.1857
vn 0.1484 -0.9217 -0.3584
vn 0.2142 -0.8286 -0.5172
vn 0.2718 -0.7041 -0.6561
vn 0.3189 -0.5528 -0.7699
vn 0.3539 -0.3805 -0.8544
vn 0.3754 -0.1939 -0.9063
vn 0.3827 -0.0000 -0.9239
vn 0.3754 0.1939 -0.9063
vn 0.3539 0.3805 -0.8544
vn 0.3189 0.5528 -0.7699
vn 0.2718 0.7041 -0.6561
vn 0.2142 0.8286 -0.5172
vn 0.1484 0.9217 -0.3584
vn 0.0769 0.9796 -0.1857
vn 0.1117 -0.9796 -0.1671
vn 0.2155 -0.9217 -0.3225
vn 0.3110 -0.8286 -0.4654
vn 0.3945 -0.7041 -0.5905
vn 0.4630 -0.5528 -0.6929
vn 0.5138 -0.3805 -0.7689
vn 0.5450 -0.1939 -0.8157
vn 0.5556 -0.0000 -0.8315
vn 0.5450 0.1939 -0.8157
vn 0.5138 0.3805 -0.7689
vn 0.4630 0.5528 -0.6929
vn 0.3945 0.7041 -0.5905
vn 0.3110 0.8286 -0.4654
vn 0.2155 0.9217 -0.3225
vn 0.1117 0.9796 -0.1671
vn 0.1421 -0.9796 -0.1421
vn 0.2743 -0.9217 -0.2743
vn 0.3958 -0.8286 -0.3958
vn 0.5021 -0.7041 -0.5021
vn 0.5893 -0.5528 -0.5893
vn 0.6539 -0.3805 -0.6539
vn 0.6937 -0.1939 -0.6937
vn 0.7071 -0.0000 -0.7071
vn 0.6937 0.1939 -0.6937
vn 0.6539 0.3805 -0.6539
vn 0.5893 0.5528 -0.5893
vn 0.5021 0.7041 -0.5021
vn 0.3958 0.8286 -0.3958
vn 0.2743 0.9217 -0.2743
vn 0.1421 0.9796 -0.1421
vn -0.0000 1.0000 -0.0000
vn 0.1671 -0.9796 -0.1117
vn 0.3225 -0.9217 -0.2155
vn 0.4654 -0.8286 -0.3110
vn 0.5905 -0.7041 -0.3945
vn 0.6929 -0.5528 -0.4630
vn 0.7689 -0.3805 -0.5138
vn 0.8157 -0.1939 -0.5450
vn 0.8315 -0.0000 -0.5556
vn 0.8157 0.1939 -0.5450
vn 0.7689 0.3805 -0.5138
vn 0.6929 0.5528 -0.4630
vn 0.5905 0.7041 -0.3945
vn 0.4654 0.8286 -0.3110
vn 0.3225 0.9217 -0.2155
vn 0.1671 0.9796 -0.1117
vn 0.1857 -0.9796 -0.0769
vn 0.3584 -0.9217 -0.1484
vn 0.5172 -0.8286 -0.2142
vn 0.6561 -0.7041 -0.2718
vn 0.7699 -0.5528 -0.3189
vn 0.8544 -0.3805 -0.3539
vn 0.9063 -0.1939 -0.3754
vn 0.9239 -0.0000 -0.3827
vn 0.9063 0.1939 -0.3754
vn 0.8544 0.3805 -0.3539
vn 0.7699 0.5528 -0.3189
vn 0.6561 0.7041 -0.2718
vn 0.5172 0.8286 -0.2142
vn 0.3584 0.9217 -0.1484
vn 0.1857 0.9796 -0.0769
vn 0.1971 -0.9796 -0.0392
vn 0.3804 -0.9217 -0.0757
vn 0.5490 -0.8286 -0.1092
vn 0.6965 -0.7041 -0.1385
vn 0.8173 -0.5528 -0.1626
vn 0.9070 -0.3805 -0.1804
vn 0.9622 -0.1939 -0.1914
vn 0.9808 -0.0000 -0.1951
vn 0.9622 0.1939 -0.1914
vn 0.9070 0.3805 -0.1804
vn 0.8173 0.5528 -0.1626
vn 0.6965 0.7041 -0.1385
vn 0.5490 0.8286 -0.1092
vn 0.3804 0.9217 -0.0757
vn 0.1971 0.9796 -0.0392
vn 0.2010 -0.9796 -0.0000
vn 0.3879 -0.9217 -0.0000
vn 0.5598 -0.8286 -0.0000
vn 0.7101 -0.7041 -0.0000
vn 0.8333 -0.5528 -0.0000
vn 0.9248 -0.3805 -0.0000
vn 0.9810 -0.1939 -0.0000
vn 1.0000 -0.0000 -0.0000
vn 0.9810 0.1939 -0.0000
vn 0.9248 0.3805 -0.0000
vn 0.8333 0.5528 -0.0000
vn 0.7101 0.7041 -0.0000
vn 0.5598 0.8286 -0.0000
vn 0.3879 0.9217 -0.0000
vn 0.2010 0.9796 -0.0000
vn 0.1971 -0.9796 0.0392
vn 0.3804 -0.9217 0.0757
vn 0.5490 -0.8286 0.1092
vn 0.6965 -0.7041 0.1385
vn 0.8173 -0.5528 0.1626
vn 0.9070 -0.3805 0.1804
vn 0.9622 -0.1939 0.1914
vn 0.9808 -0.0000 0.1951
vn 0.9622 0.1939 0.1914
vn 0.9070 0.3805 0.1804
vn 0.8173 0.5528 0.1626
vn 0.6965 0.7041 0.1385
vn 0.5490 0.8286 0.1092
vn 0.3804 0.9217 0.0757
vn 0.1971 0.9796 0.0392
vn 0.1857 -0.9796 0.0769
vn 0.3584 -0.9217 0.1484
vn 0.5172 -0.8286 0.2142
vn 0.6561 -0.7041 0.2718
vn 0.7699 -0.5528 0.3189
vn 0.8544 -0.3805 0.3539
vn 0.9063 -0.1939 0.3754
vn 0.9239 -0.0000 0.3827
vn 0.9063 0.1939 0.3754
vn 0.8544 0.3805 0.3539
vn 0.7699 0.5528 0.3189
vn 0.6561 0.7041 0.2718
vn 0.5172 0.8286 0.2142
vn 0.3584 0.9217 0.1484
vn 0.1857 0.9796 0.0769
vn 0.1671 -0.9796 0.1117
vn 0.3225 -0.9217 0.2155
vn 0.4654 -0.8286 0.3110
vn 0.5905 -0.7041 0.3945
vn 0.6929 -0.5528 0.4630
vn 0.7689 -0.3805 0.5138
vn 0.8157 -0.1939 0.5450
vn 0.8315 -0.0000 0.5556
vn 0.8157 0.1939 0.5450
vn 0.7689 0.3805 0.5138
vn 0.6929 0.5528 0.4630
vn 0.5905 0.7041 0.3945
vn 0.4654 0.8286 0.3110
vn 0.3225 0.9217 0.2155
vn 0.1671 0.9796 0.1117
vn 0.1421 -0.9796 0.1421
vn 0.2743 -0.9217 0.2743
vn 0.3958 -0.8286 0.3958
vn 0.5021 -0.7041 0.5021
vn 0.5893 -0.5528 0.5893
vn 0.6539 -0.3805 0.6539
vn 0.6937 -0.1939 0.6937
vn 0.7071 -0.0000 0.7071
vn 0.6937 0.1939 0.6937
vn 0.6539 0.3805 0.6539
vn 0.5893 0.5528 0.5893
vn 0.5021 0.7041 0.5021
vn 0.3958 0.8286 0.3958
vn 0.2743 0.9217 0.2743
vn 0.1421 0.9796 0.1421
vn 0.1117 -0.9796 0.1671
vn 0.2155 -0.9217 0.3225
vn 0.3110 -0.8286 0.4654
vn 0.3945 -0.7041 0.5905
vn 0.4630 -0.5528 0.6929
vn 0.5138 -0.3805 0.7689
vn 0.5450 -0.1939 0.8157
vn 0.5556 -0.0000 0.8315
vn 0.5450 0.1939 0.8157
vn 0.5138 0.3805 0.7689
vn 0.4630 0.5528 0.6929
vn 0.3945 0.7041 0.5905
vn 0.3110 0.8286 0.4654
vn 0.2155 0.9217 0.3225
vn 0.1117 0.9796 0.1671
vn 0.0769 -0.9796 0.1857
vn 0.1484 -0.9217 0.3584
vn 0.2142 -0.8286 0.5172
vn 0.2718 -0.7041 0.6561
vn 0.3189 -0.5528 0.7699
vn 0.3539 -0.3805 0.8544
vn 0.3754 -0.1939 0.9063
vn 0.3827 -0.0000 0.9239
vn 0.3754 0.1939 0.9063
vn 0.3539 0.3805 0.8544
vn 0.3189 0.5528 0.7699
vn 0.2718 0.7041 0.6561
vn 0.2142 0.8286 0.5172
vn 0.1484 0.9217 0.3584
vn 0.0769 0.9796 0.1857
vn 0.0392 -0.9796 0.1971
vn 0.0757 -0.9217 0.3804
vn 0.1092 -0.8286 0.5490
vn 0.1385 -0.7041 0.6965
vn 0.1626 -0.5528 0.8173
vn 0.1804 -0.3805 0.9070
vn 0.1914 -0.1939 0.9622
vn 0.1951 -0.0000 0.9808
vn 0.1914 0.1939 0.9622
vn 0.1804 0.3805 0.9070
vn 0.1626 0.5528 0.8173
vn 0.1385 0.7041 0.6965
vn 0.1092 0.8286 0.5490
vn 0.0757 0.9217 0.3804
vn 0.0392 0.9796 0.1971
vn -0.0000 -0.9796 0.2010
vn -0.0000 -0.9217 0.3879
vn -0.0000 -0.7041 0.7101
vn -0.0000 -0.3805 0.9248
vn -0.0000 0.3805 0.9248
vn -0.0000 0.7041 0.7101
vn -0.0000 0.8286 0.5598
vn -0.0000 0.9217 0.3879
vn -0.0000 0.9796 0.2010
vt 0.750000 0.812500
vt 0.718750 0.812500
vt 0.718750 0.875000
vt 0.750000 0.875000
vt 0.750000 0.312500
vt 0.718750 0.312500
vt 0.718750 0.375000
vt 0.750000 0.375000
vt 0.750000 0.750000
vt 0.718750 0.750000
vt 0.750000 0.250000
vt 0.718750 0.250000
vt 0.750000 0.687500
vt 0.718750 0.687500
vt 0.750000 0.187500
vt 0.718750 0.187500
vt 0.750000 0.625000
vt 0.718750 0.625000
vt 0.750000 0.125000
vt 0.718750 0.125000
vt 0.750000 0.562500
vt 0.718750 0.562500
vt 0.750000 0.062500
vt 0.718750 0.062500
vt 0.750000 0.500000
vt 0.718750 0.500000
vt 0.750000 0.937500
vt 0.718750 0.937500
vt 0.734375 1.000000
vt 0.734375 0.000000
vt 0.750000 0.437500
vt 0.718750 0.437500
vt 0.687500 0.437500
vt 0.687500 0.500000
vt 0.687500 0.875000
vt 0.687500 0.937500
vt 0.687500 0.375000
vt 0.687500 0.812500
vt 0.687500 0.312500
vt 0.687500 0.750000
vt 0.687500 0.250000
vt 0.687500 0.687500
vt 0.687500 0.187500
vt 0.687500 0.625000
vt 0.687500 0.125000
vt 0.687500 0.562500
vt 0.687500 0.062500
vt 0.703125 1.000000
vt 0.703125 0.000000
vt 0.656250 0.187500
vt 0.656250 0.250000
vt 0.656250 0.625000
vt 0.656250 0.687500
vt 0.656250 0.125000
vt 0.656250 0.562500
vt 0.656250 0.062500
vt 0.656250 0.500000
vt 0.656250 0.937500
vt 0.671875 1.000000
vt 0.671875 0.000000
vt 0.656250 0.437500
vt 0.656250 0.875000
vt 0.656250 0.375000
vt 0.656250 0.812500
vt 0.656250 0.312500
vt 0.656250 0.750000
vt 0.625000 0.375000
vt 0.625000 0.437500
vt 0.625000 0.812500
vt 0.625000 0.875000
vt 0.625000 0.312500
vt 0.625000 0.750000
vt 0.625000 0.250000
vt 0.625000 0.687500
vt 0.625000 0.187500
vt 0.625000 0.625000
vt 0.625000 0.125000
vt 0.625000 0.562500
vt 0.625000 0.062500
vt 0.625000 0.500000
vt 0.625000 0.937500
vt 0.640625 1.000000
vt 0.640625 0.000000
vt 0.593750 0.125000
vt 0.593750 0.187500
vt 0.593750 0.562500
vt 0.593750 0.625000
vt 0.593750 0.062500
vt 0.593750 0.500000
vt 0.593750 0.937500
vt 0.609375 1.000000
vt 0.609375 0.000000
vt 0.593750 0.437500
vt 0.593750 0.875000
vt 0.593750 0.375000
vt 0.593750 0.812500
vt 0.593750 0.312500
vt 0.593750 0.750000
vt 0.593750 0.250000
vt 0.593750 0.687500
vt 0.562500 0.812500
vt 0.562500 0.875000
vt 0.562500 0.312500
vt 0.562500 0.375000
vt 0.562500 0.750000
vt 0.562500 0.250000
vt 0.562500 0.687500
vt 0.562500 0.187500
vt 0.562500 0.625000
vt 0.562500 0.125000
vt 0.562500 0.562500
vt 0.562500 0.062500
vt 0.562500 0.500000
vt 0.562500 0.937500
vt 0.578125 1.000000
vt 0.578125 0.000000
vt 0.562500 0.437500
vt 0.531250 0.562500
vt 0.531250 0.625000
vt 0.531250 0.062500
vt 0.531250 0.125000
vt 0.531250 0.500000
vt 0.531250 0.937500
vt 0.546875 1.000000
vt 0.546875 0.000000
vt 0.531250 0.437500
vt 0.531250 0.875000
vt 0.531250 0.375000
vt 0.531250 0.812500
vt 0.531250 0.312500
vt 0.531250 0.750000
vt 0.531250 0.250000
vt 0.531250 0.687500
vt 0.531250 0.187500
vt 0.500000 0.312500
vt 0.500000 0.375000
vt 0.500000 0.750000
vt 0.500000 0.812500
vt 0.500000 0.250000
vt 0.500000 0.687500
vt 0.500000 0.187500
vt 0.500000 0.625000
vt 0.500000 0.125000
vt 0.500000 0.562500
vt 0.500000 0.062500
vt 0.500000 0.500000
vt 0.500000 0.937500
vt 0.515625 1.000000
vt 0.515625 0.000000
vt 0.500000 0.437500
vt 0.500000 0.875000
vt 0.468750 0.062500
vt 0.468750 0.125000
vt 0.468750 0.500000
vt 0.468750 0.562500
vt 0.468750 0.937500
vt 0.484375 1.000000
vt 0.484375 0.000000
vt 0.468750 0.437500
vt 0.468750 0.875000
vt 0.468750 0.375000
vt 0.468750 0.812500
vt 0.468750 0.312500
vt 0.468750 0.750000
vt 0.468750 0.250000
vt 0.468750 0.687500
vt 0.468750 0.187500
vt 0.468750 0.625000
vt 0.437500 0.750000
vt 0.437500 0.812500
vt 0.437500 0.250000
vt 0.437500 0.312500
vt 0.437500 0.687500
vt 0.437500 0.187500
vt 0.437500 0.625000
vt 0.437500 0.125000
vt 0.437500 0.562500
vt 0.437500 0.062500
vt 0.437500 0.500000
vt 0.437500 0.937500
vt 0.453125 1.000000
vt 0.453125 0.000000
vt 0.437500 0.437500
vt 0.437500 0.875000
vt 0.437500 0.375000
vt 0.406250 0.500000
vt 0.406250 0.562500
vt 0.406250 0.937500
vt 0.421875 1.000000
vt 0.421875 0.000000
vt 0.406250 0.062500
vt 0.406250 0.437500
vt 0.406250 0.875000
vt 0.406250 0.375000
vt 0.406250 0.812500
vt 0.406250 0.312500
vt 0.406250 0.750000
vt 0.406250 0.250000
vt 0.406250 0.687500
vt 0.406250 0.187500
vt 0.406250 0.625000
vt 0.406250 0.125000
vt 0.375000 0.250000
vt 0.375000 0.312500
vt 0.375000 0.687500
vt 0.375000 0.750000
vt 0.375000 0.187500
vt 0.375000 0.625000
vt 0.375000 0.125000
vt 0.375000 0.562500
vt 0.375000 0.062500
vt 0.375000 0.500000
vt 0.375000 0.937500
vt 0.390625 1.000000
vt 0.390625 0.000000
vt 0.375000 0.437500
vt 0.375000 0.875000
vt 0.375000 0.375000
vt 0.375000 0.812500
vt 0.359375 0.000000
vt 0.343750 0.062500
vt 0.343750 0.437500
vt 0.343750 0.500000
vt 0.343750 0.875000
vt 0.343750 0.937500
vt 0.343750 0.375000
vt 0.343750 0.812500
vt 0.343750 0.312500
vt 0.343750 0.750000
vt 0.343750 0.250000
vt 0.343750 0.687500
vt 0.343750 0.187500
vt 0.343750 0.625000
vt 0.343750 0.125000
vt 0.343750 0.562500
vt 0.359375 1.000000
vt 0.312500 0.187500
vt 0.312500 0.250000
vt 0.312500 0.625000
vt 0.312500 0.687500
vt 0.312500 0.125000
vt 0.312500 0.562500
vt 0.312500 0.062500
vt 0.312500 0.500000
vt 0.312500 0.937500
vt 0.328125 1.000000
vt 0.328125 0.000000
vt 0.312500 0.437500
vt 0.312500 0.875000
vt 0.312500 0.375000
vt 0.312500 0.812500
vt 0.312500 0.312500
vt 0.312500 0.750000
vt 0.281250 0.875000
vt 0.281250 0.937500
vt 0.281250 0.375000
vt 0.281250 0.437500
vt 0.281250 0.812500
vt 0.281250 0.312500
vt 0.281250 0.750000
vt 0.281250 0.250000
vt 0.281250 0.687500
vt 0.281250 0.187500
vt 0.281250 0.625000
vt 0.281250 0.125000
vt 0.281250 0.562500
vt 0.281250 0.062500
vt 0.281250 0.500000
vt 0.296875 1.000000
vt 0.296875 0.000000
vt 0.250000 0.625000
vt 0.250000 0.687500
vt 0.250000 0.125000
vt 0.250000 0.187500
vt 0.250000 0.562500
vt 0.250000 0.062500
vt 0.250000 0.500000
vt 0.250000 0.937500
vt 0.265625 1.000000
vt 0.265625 0.000000
vt 0.250000 0.437500
vt 0.250000 0.875000
vt 0.250000 0.375000
vt 0.250000 0.812500
vt 0.250000 0.312500
vt 0.250000 0.750000
vt 0.250000 0.250000
vt 0.218750 0.375000
vt 0.218750 0.437500
vt 0.218750 0.812500
vt 0.218750 0.875000
vt 0.218750 0.312500
vt 0.218750 0.750000
vt 0.218750 0.250000
vt 0.218750 0.687500
vt 0.218750 0.187500
vt 0.218750 0.625000
vt 0.218750 0.125000
vt 0.218750 0.562500
vt 0.218750 0.062500
vt 0.218750 0.500000
vt 0.218750 0.937500
vt 0.234375 1.000000
vt 0.234375 0.000000
vt 0.187500 0.125000
vt 0.187500 0.187500
vt 0.187500 0.562500
vt 0.187500 0.625000
vt 0.187500 0.062500
vt 0.187500 0.500000
vt 0.187500 0.937500
vt 0.203125 1.000000
vt 0.203125 0.000000
vt 0.187500 0.437500
vt 0.187500 0.875000
vt 0.187500 0.375000
vt 0.187500 0.812500
vt 0.187500 0.312500
vt 0.187500 0.750000
vt 0.187500 0.250000
vt 0.187500 0.687500
vt 0.156250 0.812500
vt 0.156250 0.875000
vt 0.156250 0.312500
vt 0.156250 0.375000
vt 0.156250 0.750000
vt 0.156250 0.250000
vt 0.156250 0.687500
vt 0.156250 0.187500
vt 0.156250 0.625000
vt 0.156250 0.125000
vt 0.156250 0.562500
vt 0.156250 0.062500
vt 0.156250 0.500000
vt 0.156250 0.937500
vt 0.171875 1.000000
vt 0.171875 0.000000
vt 0.156250 0.437500
vt 0.125000 0.562500
vt 0.125000 0.625000
vt 0.125000 0.062500
vt 0.125000 0.125000
vt 0.125000 0.500000
vt 0.125000 0.937500
vt 0.140625 1.000000
vt 0.140625 0.000000
vt 0.125000 0.437500
vt 0.125000 0.875000
vt 0.125000 0.375000
vt 0.125000 0.812500
vt 0.125000 0.312500
vt 0.125000 0.750000
vt 0.125000 0.250000
vt 0.125000 0.687500
vt 0.125000 0.187500
vt 0.093750 0.312500
vt 0.093750 0.375000
vt 0.093750 0.750000
vt 0.093750 0.812500
vt 0.093750 0.250000
vt 0.093750 0.687500
vt 0.093750 0.187500
vt 0.093750 0.625000
vt 0.093750 0.125000
vt 0.093750 0.562500
vt 0.093750 0.062500
vt 0.093750 0.500000
vt 0.093750 0.937500
vt 0.109375 1.000000
vt 0.109375 0.000000
vt 0.093750 0.437500
vt 0.093750 0.875000
vt 0.062500 0.062500
vt 0.062500 0.125000
vt 0.062500 0.500000
vt 0.062500 0.562500
vt 0.062500 0.937500
vt 0.078125 1.000000
vt 0.078125 0.000000
vt 0.062500 0.437500
vt 0.062500 0.875000
vt 0.062500 0.375000
vt 0.062500 0.812500
vt 0.062500 0.312500
vt 0.062500 0.750000
vt 0.062500 0.250000
vt 0.062500 0.687500
vt 0.062500 0.187500
vt 0.062500 0.625000
vt 0.031250 0.250000
vt 0.031250 0.312500
vt 0.031250 0.687500
vt 0.031250 0.750000
vt 0.031250 0.187500
vt 0.031250 0.625000
vt 0.031250 0.125000
vt 0.031250 0.562500
vt 0.031250 0.062500
vt 0.031250 0.500000
vt 0.031250 0.937500
vt 0.046875 1.000000
vt 0.046875 0.000000
vt 0.031250 0.437500
vt 0.031250 0.875000
vt 0.031250 0.375000
vt 0.031250 0.812500
vt 0.000000 0.937500
vt 0.015625 1.000000
vt 0.015625 0.000000
vt 0.000000 0.062500
vt 0.000000 0.437500
vt 0.000000 0.500000
vt 0.000000 0.875000
vt 0.000000 0.375000
vt 0.000000 0.812500
vt 0.000000 0.312500
vt 0.000000 0.750000
vt 0.000000 0.250000
vt 0.000000 0.687500
vt 0.000000 0.187500
vt 0.000000 0.625000
vt 0.000000 0.125000
vt 0.000000 0.562500
vt 1.000000 0.687500
vt 0.968750 0.687500
vt 0.968750 0.750000
vt 1.000000 0.750000
vt 1.000000 0.187500
vt 0.968750 0.187500
vt 0.968750 0.250000
vt 1.000000 0.250000
vt 1.000000 0.625000
vt 0.968750 0.625000
vt 1.000000 0.125000
vt 0.968750 0.125000
vt 1.000000 0.562500
vt 0.968750 0.562500
vt 1.000000 0.062500
vt 0.968750 0.062500
vt 1.000000 0.500000
vt 0.968750 0.500000
vt 1.000000 0.937500
vt 0.968750 0.937500
vt 0.984375 1.000000
vt 0.984375 0.000000
vt 1.000000 0.437500
vt 0.968750 0.437500
vt 1.000000 0.875000
vt 0.968750 0.875000
vt 1.000000 0.375000
vt 0.968750 0.375000
vt 1.000000 0.812500
vt 0.968750 0.812500
vt 1.000000 0.312500
vt 0.968750 0.312500
vt 0.937500 0.437500
vt 0.937500 0.500000
vt 0.937500 0.875000
vt 0.937500 0.937500
vt 0.937500 0.375000
vt 0.937500 0.812500
vt 0.937500 0.312500
vt 0.937500 0.750000
vt 0.937500 0.250000
vt 0.937500 0.687500
vt 0.937500 0.187500
vt 0.937500 0.625000
vt 0.937500 0.125000
vt 0.937500 0.562500
vt 0.937500 0.062500
vt 0.953125 1.000000
vt 0.953125 0.000000
vt 0.906250 0.187500
vt 0.906250 0.250000
vt 0.906250 0.625000
vt 0.906250 0.687500
vt 0.906250 0.125000
vt 0.906250 0.562500
vt 0.906250 0.062500
vt 0.906250 0.500000
vt 0.906250 0.937500
vt 0.921875 1.000000
vt 0.921875 0.000000
vt 0.906250 0.437500
vt 0.906250 0.875000
vt 0.906250 0.375000
vt 0.906250 0.812500
vt 0.906250 0.312500
vt 0.906250 0.750000
vt 0.875000 0.875000
vt 0.875000 0.937500
vt 0.875000 0.375000
vt 0.875000 0.437500
vt 0.875000 0.812500
vt 0.875000 0.312500
vt 0.875000 0.750000
vt 0.875000 0.250000
vt 0.875000 0.687500
vt 0.875000 0.187500
vt 0.875000 0.625000
vt 0.875000 0.125000
vt 0.875000 0.562500
vt 0.875000 0.062500
vt 0.875000 0.500000
vt 0.890625 1.000000
vt 0.890625 0.000000
vt 0.843750 0.625000
vt 0.843750 0.687500
vt 0.843750 0.125000
vt 0.843750 0.187500
vt 0.843750 0.562500
vt 0.843750 0.062500
vt 0.843750 0.500000
vt 0.843750 0.937500
vt 0.859375 1.000000
vt 0.859375 0.000000
vt 0.843750 0.437500
vt 0.843750 0.875000
vt 0.843750 0.375000
vt 0.843750 0.812500
vt 0.843750 0.312500
vt 0.843750 0.750000
vt 0.843750 0.250000
vt 0.812500 0.375000
vt 0.812500 0.437500
vt 0.812500 0.812500
vt 0.812500 0.875000
vt 0.812500 0.312500
vt 0.812500 0.750000
vt 0.812500 0.250000
vt 0.812500 0.687500
vt 0.812500 0.187500
vt 0.812500 0.625000
vt 0.812500 0.125000
vt 0.812500 0.562500
vt 0.812500 0.062500
vt 0.812500 0.500000
vt 0.812500 0.937500
vt 0.828125 1.000000
vt 0.828125 0.000000
vt 0.781250 0.125000
vt 0.781250 0.187500
vt 0.781250 0.562500
vt 0.781250 0.625000
vt 0.781250 0.062500
vt 0.781250 0.500000
vt 0.781250 0.937500
vt 0.796875 1.000000
vt 0.796875 0.000000
vt 0.781250 0.437500
vt 0.781250 0.875000
vt 0.781250 0.375000
vt 0.781250 0.812500
vt 0.781250 0.312500
vt 0.781250 0.750000
vt 0.781250 0.250000
vt 0.781250 0.687500
vt 0.765625 1.000000
vt 0.765625 0.000000
s 1
usemtl マテリアル
f 1/1/1 9/2/9 8/3/8 475/4/475
f 6/5/6 17/6/17 16/7/16 478/8/478
f 476/9/476 10/10/10 9/2/9 1/1/1
f 479/11/479 18/12/18 17/6/17 6/5/6
f 2/13/2 11/14/11 10/10/10 476/9/476
f 480/15/480 19/16/19 18/12/18 479/11/479
f 477/17/477 12/18/12 11/14/11 2/13/2
f 481/19/481 20/20/20 19/16/19 480/15/480
f 3/21/3 13/22/13 12/18/12 477/17/477
f 482/23/482 21/24/21 20/20/20 481/19/481
f 4/25/4 14/26/14 13/22/13 3/21/3
f 474/27/474 7/28/7 82/29/82
f 308/30/308 21/24/21 482/23/482
f 5/31/5 15/32/15 14/26/14 4/25/4
f 475/4/475 8/3/8 7/28/7 474/27/474
f 478/8/478 16/7/16 15/32/15 5/31/5
f 15/32/15 30/33/30 29/34/29 14/26/14
f 8/3/8 23/35/23 22/36/22 7/28/7
f 16/7/16 31/37/31 30/33/30 15/32/15
f 9/2/9 24/38/24 23/35/23 8/3/8
f 17/6/17 32/39/32 31/37/31 16/7/16
f 10/10/10 25/40/25 24/38/24 9/2/9
f 18/12/18 33/41/33 32/39/32 17/6/17
f 11/14/11 26/42/26 25/40/25 10/10/10
f 19/16/19 34/43/34 33/41/33 18/12/18
f 12/18/12 27/44/27 26/42/26 11/14/11
f 20/20/20 35/45/35 34/43/34 19/16/19
f 13/22/13 28/46/28 27/44/27 12/18/12
f 21/24/21 36/47/36 35/45/35 20/20/20
f 14/26/14 29/34/29 28/46/28 13/22/13
f 7/28/7 22/36/22 82/48/82
f 308/49/308 36/47/36 21/24/21
f 34/43/34 49/50/49 48/51/48 33/41/33
f 27/44/27 42/52/42 41/53/41 26/42/26
f 35/45/35 50/54/50 49/50/49 34/43/34
f 28/46/28 43/55/43 42/52/42 27/44/27
f 36/47/36 51/56/51 50/54/50 35/45/35
f 29/34/29 44/57/44 43/55/43 28/46/28
f 22/36/22 37/58/37 82/59/82
f 308/60/308 51/56/51 36/47/36
f 30/33/30 45/61/45 44/57/44 29/34/29
f 23/35/23 38/62/38 37/58/37 22/36/22
f 31/37/31 46/63/46 45/61/45 30/33/30
f 24/38/24 39/64/39 38/62/38 23/35/23
f 32/39/32 47/65/47 46/63/46 31/37/31
f 25/40/25 40/66/40 39/64/39 24/38/24
f 33/41/33 48/51/48 47/65/47 32/39/32
f 26/42/26 41/53/41 40/66/40 25/40/25
f 46/63/46 61/67/61 60/68/60 45/61/45
f 39/64/39 54/69/54 53/70/53 38/62/38
f 47/65/47 62/71/62 61/67/61 46/63/46
f 40/66/40 55/72/55 54/69/54 39/64/39
f 48/51/48 63/73/63 62/71/62 47/65/47
f 41/53/41 56/74/56 55/72/55 40/66/40
f 49/50/49 64/75/64 63/73/63 48/51/48
f 42/52/42 57/76/57 56/74/56 41/53/41
f 50/54/50 65/77/65 64/75/64 49/50/49
f 43/55/43 58/78/58 57/76/57 42/52/42
f 51/56/51 66/79/66 65/77/65 50/54/50
f 44/57/44 59/80/59 58/78/58 43/55/43
f 37/58/37 52/81/52 82/82/82
f 308/83/308 66/79/66 51/56/51
f 45/61/45 60/68/60 59/80/59 44/57/44
f 38/62/38 53/70/53 52/81/52 37/58/37
f 65/77/65 80/84/80 79/85/79 64/75/64
f 58/78/58 73/86/73 72/87/72 57/76/57
f 66/79/66 81/88/81 80/84/80 65/77/65
f 59/80/59 74/89/74 73/86/73 58/78/58
f 52/81/52 67/90/67 82/91/82
f 308/92/308 81/88/81 66/79/66
f 60/68/60 75/93/75 74/89/74 59/80/59
f 53/70/53 68/94/68 67/90/67 52/81/52
f 61/67/61 76/95/76 75/93/75 60/68/60
f 54/69/54 69/96/69 68/94/68 53/70/53
f 62/71/62 77/97/77 76/95/76 61/67/61
f 55/72/55 70/98/70 69/96/69 54/69/54
f 63/73/63 78/99/78 77/97/77 62/71/62
f 56/74/56 71/100/71 70/98/70 55/72/55
f 64/75/64 79/85/79 78/99/78 63/73/63
f 57/76/57 72/87/72 71/100/71 56/74/56
f 69/96/69 85/101/85 84/102/84 68/94/68
f 77/97/77 93/103/93 92/104/92 76/95/76
f 70/98/70 86/105/86 85/101/85 69/96/69
f 78/99/78 94/106/94 93/103/93 77/97/77
f 71/100/71 87/107/87 86/105/86 70/98/70
f 79/85/79 95/108/95 94/106/94 78/99/78
f 72/87/72 88/109/88 87/107/87 71/100/71
f 80/84/80 96/110/96 95/108/95 79/85/79
f 73/86/73 89/111/89 88/109/88 72/87/72
f 81/88/81 97/112/97 96/110/96 80/84/80
f 74/89/74 90/113/90 89/111/89 73/86/73
f 67/90/67 83/114/83 82/115/82
f 308/116/308 97/112/97 81/88/81
f 75/93/75 91/117/91 90/113/90 74/89/74
f 68/94/68 84/102/84 83/114/83 67/90/67
f 76/95/76 92/104/92 91/117/91 75/93/75
f 89/111/89 104/118/104 103/119/103 88/109/88
f 97/112/97 112/120/112 111/121/111 96/110/96
f 90/113/90 105/122/105 104/118/104 89/111/89
f 83/114/83 98/123/98 82/124/82
f 308/125/308 112/120/112 97/112/97
f 91/117/91 106/126/106 105/122/105 90/113/90
f 84/102/84 99/127/99 98/123/98 83/114/83
f 92/104/92 107/128/107 106/126/106 91/117/91
f 85/101/85 100/129/100 99/127/99 84/102/84
f 93/103/93 108/130/108 107/128/107 92/104/92
f 86/105/86 101/131/101 100/129/100 85/101/85
f 94/106/94 109/132/109 108/130/108 93/103/93
f 87/107/87 102/133/102 101/131/101 86/105/86
f 95/108/95 110/134/110 109/132/109 94/106/94
f 88/109/88 103/119/103 102/133/102 87/107/87
f 96/110/96 111/121/111 110/134/110 95/108/95
f 108/130/108 123/135/123 122/136/122 107/128/107
f 101/131/101 116/137/116 115/138/115 100/129/100
f 109/132/109 124/139/124 123/135/123 108/130/108
f 102/133/102 117/140/117 116/137/116 101/131/101
f 110/134/110 125/141/125 124/139/124 109/132/109
f 103/119/103 118/142/118 117/140/117 102/133/102
f 111/121/111 126/143/126 125/141/125 110/134/110
f 104/118/104 119/144/119 118/142/118 103/119/103
f 112/120/112 127/145/127 126/143/126 111/121/111
f 105/122/105 120/146/120 119/144/119 104/118/104
f 98/123/98 113/147/113 82/148/82
f 308/149/308 127/145/127 112/120/112
f 106/126/106 121/150/121 120/146/120 105/122/105
f 99/127/99 114/151/114 113/147/113 98/123/98
f 107/128/107 122/136/122 121/150/121 106/126/106
f 100/129/100 115/138/115 114/151/114 99/127/99
f 127/145/127 142/152/142 141/153/141 126/143/126
f 120/146/120 135/154/135 134/155/134 119/144/119
f 113/147/113 128/156/128 82/157/82
f 308/158/308 142/152/142 127/145/127
f 121/150/121 136/159/136 135/154/135 120/146/120
f 114/151/114 129/160/129 128/156/128 113/147/113
f 122/136/122 137/161/137 136/159/136 121/150/121
f 115/138/115 130/162/130 129/160/129 114/151/114
f 123/135/123 138/163/138 137/161/137 122/136/122
f 116/137/116 131/164/131 130/162/130 115/138/115
f 124/139/124 139/165/139 138/163/138 123/135/123
f 117/140/117 132/166/132 131/164/131 116/137/116
f 125/141/125 140/167/140 139/165/139 124/139/124
f 118/142/118 133/168/133 132/166/132 117/140/117
f 126/143/126 141/153/141 140/167/140 125/141/125
f 119/144/119 134/155/134 133/168/133 118/142/118
f 131/164/131 146/169/146 145/170/145 130/162/130
f 139/165/139 154/171/154 153/172/153 138/163/138
f 132/166/132 147/173/147 146/169/146 131/164/131
f 140/167/140 155/174/155 154/171/154 139/165/139
f 133/168/133 148/175/148 147/173/147 132/166/132
f 141/153/141 156/176/156 155/174/155 140/167/140
f 134/155/134 149/177/149 148/175/148 133/168/133
f 142/152/142 157/178/157 156/176/156 141/153/141
f 135/154/135 150/179/150 149/177/149 134/155/134
f 128/156/128 143/180/143 82/181/82
f 308/182/308 157/178/157 142/152/142
f 136/159/136 151/183/151 150/179/150 135/154/135
f 129/160/129 144/184/144 143/180/143 128/156/128
f 137/161/137 152/185/152 151/183/151 136/159/136
f 130/162/130 145/170/145 144/184/144 129/160/129
f 138/163/138 153/172/153 152/185/152 137/161/137
f 150/179/150 165/186/165 164/187/164 149/177/149
f 143/180/143 158/188/158 82/189/82
f 308/190/308 172/191/172 157/178/157
f 151/183/151 166/192/166 165/186/165 150/179/150
f 144/184/144 159/193/159 158/188/158 143/180/143
f 152/185/152 167/194/167 166/192/166 151/183/151
f 145/170/145 160/195/160 159/193/159 144/184/144
f 153/172/153 168/196/168 167/194/167 152/185/152
f 146/169/146 161/197/161 160/195/160 145/170/145
f 154/171/154 169/198/169 168/196/168 153/172/153
f 147/173/147 162/199/162 161/197/161 146/169/146
f 155/174/155 170/200/170 169/198/169 154/171/154
f 148/175/148 163/201/163 162/199/162 147/173/147
f 156/176/156 171/202/171 170/200/170 155/174/155
f 149/177/149 164/187/164 163/201/163 148/175/148
f 157/178/157 172/191/172 171/202/171 156/176/156
f 169/198/169 184/203/184 183/204/183 168/196/168
f 162/199/162 177/205/177 176/206/176 161/197/161
f 170/200/170 185/207/185 184/203/184 169/198/169
f 163/201/163 178/208/178 177/205/177 162/199/162
f 171/202/171 186/209/186 185/207/185 170/200/170
f 164/187/164 179/210/179 178/208/178 163/201/163
f 172/191/172 187/211/187 186/209/186 171/202/171
f 165/186/165 180/212/180 179/210/179 164/187/164
f 158/188/158 173/213/173 82/214/82
f 308/215/308 187/211/187 172/191/172
f 166/192/166 181/216/181 180/212/180 165/186/165
f 159/193/159 174/217/174 173/213/173 158/188/158
f 167/194/167 182/218/182 181/216/181 166/192/166
f 160/195/160 175/219/175 174/217/174 159/193/159
f 168/196/168 183/204/183 182/218/182 167/194/167
f 161/197/161 176/206/176 175/219/175 160/195/160
f 308/220/308 202/221/202 187/211/187
f 181/216/181 196/222/196 195/223/195 180/212/180
f 174/217/174 189/224/189 188/225/188 173/213/173
f 182/218/182 197/226/197 196/222/196 181/216/181
f 175/219/175 190/227/190 189/224/189 174/217/174
f 183/204/183 198/228/198 197/226/197 182/218/182
f 176/206/176 191/229/191 190/227/190 175/219/175
f 184/203/184 199/230/199 198/228/198 183/204/183
f 177/205/177 192/231/192 191/229/191 176/206/176
f 185/207/185 200/232/200 199/230/199 184/203/184
f 178/208/178 193/233/193 192/231/192 177/205/177
f 186/209/186 201/234/201 200/232/200 185/207/185
f 179/210/179 194/235/194 193/233/193 178/208/178
f 187/211/187 202/221/202 201/234/201 186/209/186
f 180/212/180 195/223/195 194/235/194 179/210/179
f 173/213/173 188/225/188 82/236/82
f 200/232/200 215/237/215 214/238/214 199/230/199
f 193/233/193 208/239/208 207/240/207 192/231/192
f 201/234/201 216/241/216 215/237/215 200/232/200
f 194/235/194 209/242/209 208/239/208 193/233/193
f 202/221/202 217/243/217 216/241/216 201/234/201
f 195/223/195 210/244/210 209/242/209 194/235/194
f 188/225/188 203/245/203 82/246/82
f 308/247/308 217/243/217 202/221/202
f 196/222/196 211/248/211 210/244/210 195/223/195
f 189/224/189 204/249/204 203/245/203 188/225/188
f 197/226/197 212/250/212 211/248/211 196/222/196
f 190/227/190 205/251/205 204/249/204 189/224/189
f 198/228/198 213/252/213 212/250/212 197/226/197
f 191/229/191 206/253/206 205/251/205 190/227/190
f 199/230/199 214/238/214 213/252/213 198/228/198
f 192/231/192 207/240/207 206/253/206 191/229/191
f 204/249/204 219/254/219 218/255/218 203/245/203
f 212/250/212 227/256/227 226/257/226 211/248/211
f 205/251/205 220/258/220 219/254/219 204/249/204
f 213/252/213 228/259/228 227/256/227 212/250/212
f 206/253/206 221/260/221 220/258/220 205/251/205
f 214/238/214 229/261/229 228/259/228 213/252/213
f 207/240/207 222/262/222 221/260/221 206/253/206
f 215/237/215 230/263/230 229/261/229 214/238/214
f 208/239/208 223/264/223 222/262/222 207/240/207
f 216/241/216 231/265/231 230/263/230 215/237/215
f 209/242/209 224/266/224 223/264/223 208/239/208
f 217/243/217 232/267/232 231/265/231 216/241/216
f 210/244/210 225/268/225 224/266/224 209/242/209
f 203/245/203 218/255/218 82/269/82
f 308/270/308 232/267/232 217/243/217
f 211/248/211 226/257/226 225/268/225 210/244/210
f 223/264/223 238/271/238 237/272/237 222/262/222
f 231/265/231 246/273/246 245/274/245 230/263/230
f 224/266/224 239/275/239 238/271/238 223/264/223
f 232/267/232 247/276/247 246/273/246 231/265/231
f 225/268/225 240/277/240 239/275/239 224/266/224
f 218/255/218 233/278/233 82/279/82
f 308/280/308 247/276/247 232/267/232
f 226/257/226 241/281/241 240/277/240 225/268/225
f 219/254/219 234/282/234 233/278/233 218/255/218
f 227/256/227 242/283/242 241/281/241 226/257/226
f 220/258/220 235/284/235 234/282/234 219/254/219
f 228/259/228 243/285/243 242/283/242 227/256/227
f 221/260/221 236/286/236 235/284/235 220/258/220
f 229/261/229 244/287/244 243/285/243 228/259/228
f 222/262/222 237/272/237 236/286/236 221/260/221
f 230/263/230 245/274/245 244/287/244 229/261/229
f 242/283/242 257/288/257 256/289/256 241/281/241
f 235/284/235 250/290/250 249/291/249 234/282/234
f 243/285/243 258/292/258 257/288/257 242/283/242
f 236/286/236 251/293/251 250/290/250 235/284/235
f 244/287/244 259/294/259 258/292/258 243/285/243
f 237/272/237 252/295/252 251/293/251 236/286/236
f 245/274/245 260/296/260 259/294/259 244/287/244
f 238/271/238 253/297/253 252/295/252 237/272/237
f 246/273/246 261/298/261 260/296/260 245/274/245
f 239/275/239 254/299/254 253/297/253 238/271/238
f 247/276/247 262/300/262 261/298/261 246/273/246
f 240/277/240 255/301/255 254/299/254 239/275/239
f 233/278/233 248/302/248 82/303/82
f 308/304/308 262/300/262 247/276/247
f 241/281/241 256/289/256 255/301/255 240/277/240
f 234/282/234 249/291/249 248/302/248 233/278/233
f 261/298/261 276/305/276 275/306/275 260/296/260
f 254/299/254 269/307/269 268/308/268 253/297/253
f 262/300/262 277/309/277 276/305/276 261/298/261
f 255/301/255 270/310/270 269/307/269 254/299/254
f 248/302/248 263/311/263 82/312/82
f 308/313/308 277/309/277 262/300/262
f 256/289/256 271/314/271 270/310/270 255/301/255
f 249/291/249 264/315/264 263/311/263 248/302/248
f 257/288/257 272/316/272 271/314/271 256/289/256
f 250/290/250 265/317/265 264/315/264 249/291/249
f 258/292/258 273/318/273 272/316/272 257/288/257
f 251/293/251 266/319/266 265/317/265 250/290/250
f 259/294/259 274/320/274 273/318/273 258/292/258
f 252/295/252 267/321/267 266/319/266 251/293/251
f 260/296/260 275/306/275 274/320/274 259/294/259
f 253/297/253 268/308/268 267/321/267 252/295/252
f 265/317/265 280/322/280 279/323/279 264/315/264
f 273/318/273 288/324/288 287/325/287 272/316/272
f 266/319/266 281/326/281 280/322/280 265/317/265
f 274/320/274 289/327/289 288/324/288 273/318/273
f 267/321/267 282/328/282 281/326/281 266/319/266
f 275/306/275 290/329/290 289/327/289 274/320/274
f 268/308/268 283/330/283 282/328/282 267/321/267
f 276/305/276 291/331/291 290/329/290 275/306/275
f 269/307/269 284/332/284 283/330/283 268/308/268
f 277/309/277 292/333/292 291/331/291 276/305/276
f 270/310/270 285/334/285 284/332/284 269/307/269
f 263/311/263 278/335/278 82/336/82
f 308/337/308 292/333/292 277/309/277
f 271/314/271 286/338/286 285/334/285 270/310/270
f 264/315/264 279/323/279 278/335/278 263/311/263
f 272/316/272 287/325/287 286/338/286 271/314/271
f 284/332/284 299/339/299 298/340/298 283/330/283
f 292/333/292 307/341/307 306/342/306 291/331/291
f 285/334/285 300/343/300 299/339/299 284/332/284
f 278/335/278 293/344/293 82/345/82
f 308/346/308 307/341/307 292/333/292
f 286/338/286 301/347/301 300/343/300 285/334/285
f 279/323/279 294/348/294 293/344/293 278/335/278
f 287/325/287 302/349/302 301/347/301 286/338/286
f 280/322/280 295/350/295 294/348/294 279/323/279
f 288/324/288 303/351/303 302/349/302 287/325/287
f 281/326/281 296/352/296 295/350/295 280/322/280
f 289/327/289 304/353/304 303/351/303 288/324/288
f 282/328/282 297/354/297 296/352/296 281/326/281
f 290/329/290 305/355/305 304/353/304 289/327/289
f 283/330/283 298/340/298 297/354/297 282/328/282
f 291/331/291 306/342/306 305/355/305 290/329/290
f 303/351/303 319/356/319 318/357/318 302/349/302
f 296/352/296 312/358/312 311/359/311 295/350/295
f 304/353/304 320/360/320 319/356/319 303/351/303
f 297/354/297 313/361/313 312/358/312 296/352/296
f 305/355/305 321/362/321 320/360/320 304/353/304
f 298/340/298 314/363/314 313/361/313 297/354/297
f 306/342/306 322/364/322 321/362/321 305/355/305
f 299/339/299 315/365/315 314/363/314 298/340/298
f 307/341/307 323/366/323 322/364/322 306/342/306
f 300/343/300 316/367/316 315/365/315 299/339/299
f 293/344/293 309/368/309 82/369/82
f 308/370/308 323/366/323 307/341/307
f 301/347/301 317/371/317 316/367/316 300/343/300
f 294/348/294 310/372/310 309/368/309 293/344/293
f 302/349/302 318/357/318 317/371/317 301/347/301
f 295/350/295 311/359/311 310/372/310 294/348/294
f 323/366/323 338/373/338 337/374/337 322/364/322
f 316/367/316 331/375/331 330/376/330 315/365/315
f 309/368/309 324/377/324 82/378/82
f 308/379/308 338/373/338 323/366/323
f 317/371/317 332/380/332 331/375/331 316/367/316
f 310/372/310 325/381/325 324/377/324 309/368/309
f 318/357/318 333/382/333 332/380/332 317/371/317
f 311/359/311 326/383/326 325/381/325 310/372/310
f 319/356/319 334/384/334 333/382/333 318/357/318
f 312/358/312 327/385/327 326/383/326 311/359/311
f 320/360/320 335/386/335 334/384/334 319/356/319
f 313/361/313 328/387/328 327/385/327 312/358/312
f 321/362/321 336/388/336 335/386/335 320/360/320
f 314/363/314 329/389/329 328/387/328 313/361/313
f 322/364/322 337/374/337 336/388/336 321/362/321
f 315/365/315 330/376/330 329/389/329 314/363/314
f 335/386/335 350/390/350 349/391/349 334/384/334
f 328/387/328 343/392/343 342/393/342 327/385/327
f 336/388/336 351/394/351 350/390/350 335/386/335
f 329/389/329 344/395/344 343/392/343 328/387/328
f 337/374/337 352/396/352 351/394/351 336/388/336
f 330/376/330 345/397/345 344/395/344 329/389/329
f 338/373/338 353/398/353 352/396/352 337/374/337
f 331/375/331 346/399/346 345/397/345 330/376/330
f 324/377/324 339/400/339 82/401/82
f 308/402/308 353/398/353 338/373/338
f 332/380/332 347/403/347 346/399/346 331/375/331
f 325/381/325 340/404/340 339/400/339 324/377/324
f 333/382/333 348/405/348 347/403/347 332/380/332
f 326/383/326 341/406/341 340/404/340 325/381/325
f 334/384/334 349/391/349 348/405/348 333/382/333
f 327/385/327 342/393/342 341/406/341 326/383/326
f 339/400/339 354/407/354 82/408/82
f 308/409/308 368/410/368 353/398/353
f 347/403/347 362/411/362 361/412/361 346/399/346
f 340/404/340 355/413/355 354/407/354 339/400/339
f 348/405/348 363/414/363 362/411/362 347/403/347
f 341/406/341 356/415/356 355/413/355 340/404/340
f 349/391/349 364/416/364 363/414/363 348/405/348
f 342/393/342 357/417/357 356/415/356 341/406/341
f 350/390/350 365/418/365 364/416/364 349/391/349
f 343/392/343 358/419/358 357/417/357 342/393/342
f 351/394/351 366/420/366 365/418/365 350/390/350
f 344/395/344 359/421/359 358/419/358 343/392/343
f 352/396/352 367/422/367 366/420/366 351/394/351
f 345/397/345 360/423/360 359/421/359 344/395/344
f 353/398/353 368/410/368 367/422/367 352/396/352
f 346/399/346 361/412/361 360/423/360 345/397/345
f 358/424/358 373/425/373 372/426/372 357/427/357
f 366/428/366 381/429/381 380/430/380 365/431/365
f 359/432/359 374/433/374 373/425/373 358/424/358
f 367/434/367 382/435/382 381/429/381 366/428/366
f 360/436/360 375/437/375 374/433/374 359/432/359
f 368/438/368 383/439/383 382/435/382 367/434/367
f 361/440/361 376/441/376 375/437/375 360/436/360
f 354/442/354 369/443/369 82/444/82
f 308/445/308 383/439/383 368/438/368
f 362/446/362 377/447/377 376/441/376 361/440/361
f 355/448/355 370/449/370 369/443/369 354/442/354
f 363/450/363 378/451/378 377/447/377 362/446/362
f 356/452/356 371/453/371 370/449/370 355/448/355
f 364/454/364 379/455/379 378/451/378 363/450/363
f 357/427/357 372/426/372 371/453/371 356/452/356
f 365/431/365 380/430/380 379/455/379 364/454/364
f 377/447/377 392/456/392 391/457/391 376/441/376
f 370/449/370 385/458/385 384/459/384 369/443/369
f 378/451/378 393/460/393 392/456/392 377/447/377
f 371/453/371 386/461/386 385/458/385 370/449/370
f 379/455/379 394/462/394 393/460/393 378/451/378
f 372/426/372 387/463/387 386/461/386 371/453/371
f 380/430/380 395/464/395 394/462/394 379/455/379
f 373/425/373 388/465/388 387/463/387 372/426/372
f 381/429/381 396/466/396 395/464/395 380/430/380
f 374/433/374 389/467/389 388/465/388 373/425/373
f 382/435/382 397/468/397 396/466/396 381/429/381
f 375/437/375 390/469/390 389/467/389 374/433/374
f 383/439/383 398/470/398 397/468/397 382/435/382
f 376/441/376 391/457/391 390/469/390 375/437/375
f 369/443/369 384/459/384 82/471/82
f 308/472/308 398/470/398 383/439/383
f 396/466/396 411/473/411 410/474/410 395/464/395
f 389/467/389 404/475/404 403/476/403 388/465/388
f 397/468/397 412/477/412 411/473/411 396/466/396
f 390/469/390 405/478/405 404/475/404 389/467/389
f 398/470/398 413/479/413 412/477/412 397/468/397
f 391/457/391 406/480/406 405/478/405 390/469/390
f 384/459/384 399/481/399 82/482/82
f 308/483/308 413/479/413 398/470/398
f 392/456/392 407/484/407 406/480/406 391/457/391
f 385/458/385 400/485/400 399/481/399 384/459/384
f 393/460/393 408/486/408 407/484/407 392/456/392
f 386/461/386 401/487/401 400/485/400 385/458/385
f 394/462/394 409/488/409 408/486/408 393/460/393
f 387/463/387 402/489/402 401/487/401 386/461/386
f 395/464/395 410/474/410 409/488/409 394/462/394
f 388/465/388 403/476/403 402/489/402 387/463/387
f 400/485/400 415/490/415 414/491/414 399/481/399
f 408/486/408 423/492/423 422/493/422 407/484/407
f 401/487/401 416/494/416 415/490/415 400/485/400
f 409/488/409 424/495/424 423/492/423 408/486/408
f 402/489/402 417/496/417 416/494/416 401/487/401
f 410/474/410 425/497/425 424/495/424 409/488/409
f 403/476/403 418/498/418 417/496/417 402/489/402
f 411/473/411 426/499/426 425/497/425 410/474/410
f 404/475/404 419/500/419 418/498/418 403/476/403
f 412/477/412 427/501/427 426/499/426 411/473/411
f 405/478/405 420/502/420 419/500/419 404/475/404
f 413/479/413 428/503/428 427/501/427 412/477/412
f 406/480/406 421/504/421 420/502/420 405/478/405
f 399/481/399 414/491/414 82/505/82
f 308/506/308 428/503/428 413/479/413
f 407/484/407 422/493/422 421/504/421 406/480/406
f 419/500/419 434/507/434 433/508/433 418/498/418
f 427/501/427 442/509/442 441/510/441 426/499/426
f 420/502/420 435/511/435 434/507/434 419/500/419
f 428/503/428 443/512/443 442/509/442 427/501/427
f 421/504/421 436/513/436 435/511/435 420/502/420
f 414/491/414 429/514/429 82/515/82
f 308/516/308 443/512/443 428/503/428
f 422/493/422 437/517/437 436/513/436 421/504/421
f 415/490/415 430/518/430 429/514/429 414/491/414
f 423/492/423 438/519/438 437/517/437 422/493/422
f 416/494/416 431/520/431 430/518/430 415/490/415
f 424/495/424 439/521/439 438/519/438 423/492/423
f 417/496/417 432/522/432 431/520/431 416/494/416
f 425/497/425 440/523/440 439/521/439 424/495/424
f 418/498/418 433/508/433 432/522/432 417/496/417
f 426/499/426 441/510/441 440/523/440 425/497/425
f 438/519/438 453/524/453 452/525/452 437/517/437
f 431/520/431 446/526/446 445/527/445 430/518/430
f 439/521/439 454/528/454 453/524/453 438/519/438
f 432/522/432 447/529/447 446/526/446 431/520/431
f 440/523/440 455/530/455 454/528/454 439/521/439
f 433/508/433 448/531/448 447/529/447 432/522/432
f 441/510/441 456/532/456 455/530/455 440/523/440
f 434/507/434 449/533/449 448/531/448 433/508/433
f 442/509/442 457/534/457 456/532/456 441/510/441
f 435/511/435 450/535/450 449/533/449 434/507/434
f 443/512/443 458/536/458 457/534/457 442/509/442
f 436/513/436 451/537/451 450/535/450 435/511/435
f 429/514/429 444/538/444 82/539/82
f 308/540/308 458/536/458 443/512/443
f 437/517/437 452/525/452 451/537/451 436/513/436
f 430/518/430 445/527/445 444/538/444 429/514/429
f 457/534/457 472/541/472 471/542/471 456/532/456
f 450/535/450 465/543/465 464/544/464 449/533/449
f 458/536/458 473/545/473 472/541/472 457/534/457
f 451/537/451 466/546/466 465/543/465 450/535/450
f 444/538/444 459/547/459 82/548/82
f 308/549/308 473/545/473 458/536/458
f 452/525/452 467/550/467 466/546/466 451/537/451
f 445/527/445 460/551/460 459/547/459 444/538/444
f 453/524/453 468/552/468 467/550/467 452/525/452
f 446/526/446 461/553/461 460/551/460 445/527/445
f 454/528/454 469/554/469 468/552/468 453/524/453
f 447/529/447 462/555/462 461/553/461 446/526/446
f 455/530/455 470/556/470 469/554/469 454/528/454
f 448/531/448 463/557/463 462/555/462 447/529/447
f 456/532/456 471/542/471 470/556/470 455/530/455
f 449/533/449 464/544/464 463/557/463 448/531/448
f 469/554/469 6/5/6 478/8/478 468/552/468
f 462/555/462 476/9/476 1/1/1 461/553/461
f 470/556/470 479/11/479 6/5/6 469/554/469
f 463/557/463 2/13/2 476/9/476 462/555/462
f 471/542/471 480/15/480 479/11/479 470/556/470
f 464/544/464 477/17/477 2/13/2 463/557/463
f 472/541/472 481/19/481 480/15/480 471/542/471
f 465/543/465 3/21/3 477/17/477 464/544/464
f 473/545/473 482/23/482 481/19/481 472/541/472
f 466/546/466 4/25/4 3/21/3 465/543/465
f 459/547/459 474/27/474 82/558/82
f 308/559/308 482/23/482 473/545/473
f 467/550/467 5/31/5 4/25/4 466/546/466
f 460/551/460 475/4/475 474/27/474 459/547/459
f 468/552/468 478/8/478 5/31/5 467/550/467
f 461/553/461 1/1/1 475/4/475 460/551/460
